<svg width="2000" height="1200" viewBox="0 0 2000 1200" fill="none" xmlns="http://www.w3.org/2000/svg">
  <!-- Background gradient -->
  <defs>
    <linearGradient id="bg" x1="0%" y1="0%" x2="100%" y2="100%">
      <stop offset="0%" style="stop-color:#f8fafc;stop-opacity:1" />
      <stop offset="100%" style="stop-color:#e2e8f0;stop-opacity:1" />
    </linearGradient>
    <linearGradient id="ground" x1="0%" y1="0%" x2="100%" y2="100%">
      <stop offset="0%" style="stop-color:#94a3b8;stop-opacity:0.3" />
      <stop offset="100%" style="stop-color:#64748b;stop-opacity:0.5" />
    </linearGradient>
  </defs>
  
  <rect width="2000" height="1200" fill="url(#bg)"/>
  
  <!-- Ground/terrain -->
  <path d="M0 800 Q500 750 1000 800 T2000 780 L2000 1200 L0 1200 Z" fill="url(#ground)"/>
  
  <!-- Grid lines (representing survey grid) -->
  <g stroke="#64748b" stroke-width="1" opacity="0.2">
    <defs>
      <pattern id="grid" width="100" height="100" patternUnits="userSpaceOnUse">
        <path d="M 100 0 L 0 0 0 100" fill="none" stroke="#64748b" stroke-width="1"/>
      </pattern>
    </defs>
    <rect width="2000" height="1200" fill="url(#grid)" />
  </g>
  
  <!-- Surveyor figure (simplified) -->
  <g transform="translate(1200, 600)">
    <!-- GPS/Survey equipment on tripod -->
    <g transform="translate(-50, 0)">
      <!-- Tripod legs -->
      <line x1="0" y1="100" x2="-30" y2="200" stroke="#334155" stroke-width="3"/>
      <line x1="0" y1="100" x2="30" y2="200" stroke="#334155" stroke-width="3"/>
      <line x1="0" y1="100" x2="0" y2="200" stroke="#334155" stroke-width="3"/>
      
      <!-- Equipment base -->
      <rect x="-15" y="80" width="30" height="20" fill="#475569" rx="2"/>
      
      <!-- GPS/Survey device -->
      <rect x="-12" y="60" width="24" height="25" fill="#1e293b" rx="3"/>
      <circle cx="0" cy="72" r="4" fill="#3b82f6"/>
      <rect x="-8" y="55" width="16" height="8" fill="#64748b" rx="1"/>
    </g>
    
    <!-- Human figure -->
    <g transform="translate(30, 0)">
      <!-- Head -->
      <circle cx="0" cy="0" r="12" fill="#fbbf24"/>
      <!-- Hard hat -->
      <path d="M -12 -5 Q 0 -15 12 -5 L 10 -2 L -10 -2 Z" fill="#dc2626"/>
      
      <!-- Body -->
      <rect x="-8" y="12" width="16" height="40" fill="#3b82f6" rx="3"/>
      
      <!-- Arms -->
      <circle cx="-15" cy="20" r="4" fill="#fbbf24"/>
      <rect x="-19" y="16" width="8" height="20" fill="#3b82f6" rx="2"/>
      
      <circle cx="15" cy="25" r="4" fill="#fbbf24"/>
      <rect x="11" y="21" width="8" height="15" fill="#3b82f6" rx="2"/>
      
      <!-- Device in hand -->
      <rect x="19" y="23" width="6" height="10" fill="#1e293b" rx="1"/>
      <circle cx="22" cy="26" r="1" fill="#10b981"/>
      
      <!-- Legs -->
      <rect x="-6" y="52" width="5" height="25" fill="#1e293b" rx="2"/>
      <rect x="1" y="52" width="5" height="25" fill="#1e293b" rx="2"/>
      
      <!-- Feet -->
      <ellipse cx="-3" cy="80" rx="4" ry="2" fill="#374151"/>
      <ellipse cx="3" cy="80" rx="4" ry="2" fill="#374151"/>
    </g>
  </g>
  
  <!-- Survey markers/points -->
  <circle cx="300" cy="850" r="3" fill="#ef4444"/>
  <circle cx="600" cy="820" r="3" fill="#ef4444"/>
  <circle cx="900" cy="840" r="3" fill="#ef4444"/>
  <circle cx="1500" cy="830" r="3" fill="#ef4444"/>
  
  <!-- Survey lines connecting points -->
  <g stroke="#ef4444" stroke-width="1" opacity="0.6" stroke-dasharray="5,5">
    <line x1="300" y1="850" x2="600" y2="820"/>
    <line x1="600" y1="820" x2="900" y2="840"/>
    <line x1="900" y1="840" x2="1500" y2="830"/>
  </g>
  
  <!-- Clouds for atmosphere -->
  <g opacity="0.1" fill="#94a3b8">
    <ellipse cx="400" cy="200" rx="60" ry="30"/>
    <ellipse cx="380" cy="190" rx="40" ry="25"/>
    <ellipse cx="420" cy="190" rx="35" ry="20"/>
    
    <ellipse cx="1200" cy="150" rx="80" ry="40"/>
    <ellipse cx="1170" cy="140" rx="50" ry="30"/>
    <ellipse cx="1230" cy="140" rx="45" ry="25"/>
    
    <ellipse cx="1700" cy="180" rx="55" ry="28"/>
    <ellipse cx="1685" cy="170" rx="35" ry="22"/>
    <ellipse cx="1715" cy="170" rx="30" ry="18"/>
  </g>
</svg>